<svg width="14" height="14" viewBox="0 0 14 14" fill="none" xmlns="http://www.w3.org/2000/svg">
<circle cx="7" cy="7" r="7" fill="#9C9C9C"/>
<path fill-rule="evenodd" clip-rule="evenodd" d="M9.55625 5H9.15938V4.14286C9.15938 2.96 8.27038 2 7.175 2C6.07963 2 5.19063 2.96 5.19063 4.14286V5H4.79375C4.35719 5 4 5.38571 4 5.85714V10.1429C4 10.6143 4.35719 11 4.79375 11H9.55625C9.99281 11 10.35 10.6143 10.35 10.1429V5.85714C10.35 5.38571 9.99281 5 9.55625 5V5ZM8.40532 5.00001H5.9447V4.14287C5.9447 3.41001 6.49636 2.8143 7.17501 2.8143C7.85367 2.8143 8.40532 3.41001 8.40532 4.14287V5.00001V5.00001Z" fill="white"/>
</svg>
